<?xml version="1.0" encoding="iso-8859-1"?>
<!-- Generator: Adobe Illustrator 19.0.0, SVG Export Plug-In . SVG Version: 6.00 Build 0)  -->
<svg version="1.1" xmlns="http://www.w3.org/2000/svg" xmlns:xlink="http://www.w3.org/1999/xlink" x="0px" y="0px"
	 viewBox="0 0 512 512" style="enable-background:new 0 0 512 512;" xml:space="preserve">
<g id="_x32_7_x5F_Manu">
	<g id="XMLID_114_">
		<g id="XMLID_1579_">
			<g id="XMLID_757_">
				<g id="XMLID_758_">
					<path id="XMLID_90_" style="fill:#C2E1F5;" d="M421,436v12.92c0,26-21.08,47.08-47.08,47.08H138.08
						c-26,0-47.08-21.08-47.08-47.08V436H421z"/>
				</g>
			</g>
			<g id="XMLID_32_">
				<g id="XMLID_755_">
					<path id="XMLID_1902_" style="fill: #00008B;" d="M373.92,511H138.08C103.849,511,76,483.151,76,448.92V63.08
						C76,28.849,103.849,1,138.08,1h235.84C408.151,1,436,28.849,436,63.08v385.84C436,483.151,408.151,511,373.92,511z M138.08,31
						C120.391,31,106,45.391,106,63.08v385.84c0,17.69,14.391,32.08,32.08,32.08h235.84c17.689,0,32.08-14.391,32.08-32.08V63.08
						C406,45.391,391.609,31,373.92,31H138.08z"/>
				</g>
				<g id="XMLID_753_">
					<rect id="XMLID_1901_" x="181" y="61" style="fill: #00008B;" width="89.25" height="30"/>
				</g>
				<g id="XMLID_752_">
					<rect id="XMLID_1888_" x="300.25" y="61" style="fill: #00008B;" width="30.75" height="30"/>
				</g>
				<g id="XMLID_751_">
					<rect id="XMLID_1887_" x="91" y="421" style="fill: #00008B;" width="330" height="30"/>
				</g>
				<g id="XMLID_750_">
					<rect id="XMLID_1886_" x="151" y="166" style="fill: #00008B;" width="30" height="30"/>
				</g>
				<g id="XMLID_749_">
					<rect id="XMLID_1885_" x="211" y="166" style="fill: #00008B;" width="150" height="30"/>
				</g>
				<g id="XMLID_748_">
					<rect id="XMLID_1884_" x="151" y="241" style="fill: #00008B;" width="30" height="30"/>
				</g>
				<g id="XMLID_245_">
					<rect id="XMLID_1883_" x="211" y="241" style="fill: #00008B;" width="150" height="30"/>
				</g>
				<g id="XMLID_89_">
					<rect id="XMLID_1882_" x="151" y="316" style="fill: #00008B;" width="30" height="30"/>
				</g>
				<g id="XMLID_88_">
					<rect id="XMLID_1881_" x="211" y="316" style="fill: #00008B;" width="150" height="30"/>
				</g>
			</g>
		</g>
	</g>
</g>
<g id="Layer_1">
</g>
</svg>
