<?xml version="1.0" encoding="UTF-8" standalone="no"?> <svg width="50" height="52" viewBox="0 0 50 52" fill="none" xmlns="http://www.w3.org/2000/svg">
<path d="M37.5 4.125C39.2259 4.125 40.625 5.52411 40.625 7.25V40.8603C40.625 40.8603 37.5 35.375 25 35.375C12.5 35.375 9.375 40.8607 9.375 40.8607V7.25C9.375 5.52411 10.7741 4.125 12.5 4.125H37.5ZM12.5 1C9.04822 1 6.25 3.79822 6.25 7.25V44.75C6.25 48.2018 9.04822 51 12.5 51H37.5C40.9518 51 43.75 48.2018 43.75 44.75V7.25C43.75 3.79822 40.9518 1 37.5 1H12.5Z" fill="url(#paint0_linear_801_1653)"/>
<path d="M25 32.25C30.1777 32.25 34.375 28.0527 34.375 22.875C34.375 17.6973 30.1777 13.5 25 13.5C19.8223 13.5 15.625 17.6973 15.625 22.875C15.625 28.0527 19.8223 32.25 25 32.25Z" fill="url(#paint1_linear_801_1653)"/>
<path d="M40.625 40.8603L40.1906 41.1078C40.3028 41.3049 40.5337 41.4017 40.753 41.3437C40.9723 41.2856 41.125 41.0872 41.125 40.8603H40.625ZM9.375 40.8607H8.875C8.875 41.0875 9.02771 41.2859 9.24699 41.344C9.46627 41.4021 9.69717 41.3053 9.80945 41.1082L9.375 40.8607ZM12.5 4.625H37.5V3.625H12.5V4.625ZM9.875 7.25C9.875 5.80025 11.0503 4.625 12.5 4.625V3.625C10.498 3.625 8.875 5.24797 8.875 7.25H9.875ZM37.5 4.625C38.9497 4.625 40.125 5.80025 40.125 7.25H41.125C41.125 5.24797 39.502 3.625 37.5 3.625V4.625ZM6.75 7.25C6.75 4.07436 9.32436 1.5 12.5 1.5V0.5C8.77208 0.5 5.75 3.52208 5.75 7.25H6.75ZM6.75 44.75V7.25H5.75V44.75H6.75ZM12.5 50.5C9.32436 50.5 6.75 47.9256 6.75 44.75H5.75C5.75 48.4779 8.77208 51.5 12.5 51.5V50.5ZM37.5 50.5H12.5V51.5H37.5V50.5ZM43.25 44.75C43.25 47.9256 40.6756 50.5 37.5 50.5V51.5C41.2279 51.5 44.25 48.4779 44.25 44.75H43.25ZM43.25 7.25V44.75H44.25V7.25H43.25ZM37.5 1.5C40.6756 1.5 43.25 4.07436 43.25 7.25H44.25C44.25 3.52208 41.2279 0.5 37.5 0.5V1.5ZM12.5 1.5H37.5V0.5H12.5V1.5ZM40.125 7.25V40.8603H41.125V7.25H40.125ZM9.875 40.8607V7.25H8.875V40.8607H9.875ZM40.625 40.8603C41.0594 40.6128 41.0592 40.6124 41.059 40.612C41.0589 40.6119 41.0587 40.6114 41.0585 40.6111C41.0581 40.6105 41.0577 40.6097 41.0572 40.6089C41.0562 40.6073 41.0551 40.6053 41.0537 40.603C41.051 40.5984 41.0475 40.5925 41.0432 40.5853C41.0345 40.571 41.0225 40.5516 41.0069 40.5275C40.9758 40.4793 40.9306 40.4123 40.8697 40.3292C40.7479 40.1629 40.5634 39.9322 40.304 39.659C39.7848 39.1121 38.9668 38.3966 37.7525 37.6861C35.3212 36.2636 31.3252 34.875 25 34.875V35.875C31.1748 35.875 34.9913 37.2291 37.2475 38.5492C38.377 39.2101 39.1215 39.8659 39.5788 40.3475C39.8077 40.5885 39.965 40.7864 40.0629 40.9201C40.1119 40.9869 40.146 41.0378 40.1668 41.0699C40.1772 41.086 40.1842 41.0974 40.1881 41.1039C40.1901 41.1071 40.1912 41.109 40.1916 41.1097C40.1918 41.1101 40.1918 41.1101 40.1917 41.1098C40.1916 41.1096 40.1914 41.1094 40.1912 41.109C40.1912 41.1089 40.191 41.1086 40.1909 41.1085C40.1908 41.1082 40.1906 41.1078 40.625 40.8603ZM25 34.875C18.6748 34.875 14.6788 36.2636 12.2475 37.6863C11.0332 38.3968 10.2152 39.1124 9.69599 39.6593C9.43655 39.9325 9.25211 40.1632 9.13032 40.3295C9.06942 40.4126 9.0242 40.4797 8.99309 40.5279C8.97753 40.5519 8.96551 40.5713 8.95682 40.5857C8.95247 40.5928 8.94896 40.5987 8.94625 40.6033C8.9449 40.6056 8.94375 40.6076 8.9428 40.6092C8.94233 40.6101 8.9419 40.6108 8.94153 40.6115C8.94134 40.6118 8.9411 40.6122 8.941 40.6124C8.94077 40.6128 8.94055 40.6132 9.375 40.8607C9.80945 41.1082 9.80925 41.1085 9.80907 41.1088C9.80902 41.1089 9.80885 41.1092 9.80876 41.1094C9.80857 41.1097 9.80844 41.1099 9.80835 41.1101C9.80817 41.1104 9.80817 41.1104 9.80837 41.11C9.80877 41.1094 9.80993 41.1074 9.81188 41.1042C9.81577 41.0978 9.82282 41.0863 9.83321 41.0703C9.85398 41.0381 9.8881 40.9873 9.93707 40.9204C10.035 40.7867 10.1924 40.5888 10.4212 40.3478C10.8785 39.8661 11.623 39.2103 12.7525 38.5494C15.0087 37.2292 18.8252 35.875 25 35.875V34.875ZM25 32.75C30.4538 32.75 34.875 28.3288 34.875 22.875H33.875C33.875 27.7765 29.9015 31.75 25 31.75V32.75ZM34.875 22.875C34.875 17.4212 30.4538 13 25 13V14C29.9015 14 33.875 17.9735 33.875 22.875H34.875ZM25 13C19.5462 13 15.125 17.4212 15.125 22.875H16.125C16.125 17.9735 20.0985 14 25 14V13ZM15.125 22.875C15.125 28.3288 19.5462 32.75 25 32.75V31.75C20.0985 31.75 16.125 27.7765 16.125 22.875H15.125Z" fill="url(#paint2_linear_801_1653)"/>
<defs>
<linearGradient id="paint0_linear_801_1653" x1="25" y1="1" x2="25" y2="51" gradientUnits="userSpaceOnUse">
<stop stop-color=" #00008B"/>
<stop offset="1" stop-color="#0085FF"/>
</linearGradient>
<linearGradient id="paint1_linear_801_1653" x1="25" y1="1" x2="25" y2="51" gradientUnits="userSpaceOnUse">
<stop stop-color=" #00008B"/>
<stop offset="1" stop-color="#0085FF"/>
</linearGradient>
<linearGradient id="paint2_linear_801_1653" x1="25" y1="1" x2="25" y2="51" gradientUnits="userSpaceOnUse">
<stop stop-color=" #00008B"/>
<stop offset="1" stop-color="#0085FF"/>
</linearGradient>
</defs>
</svg>
