<?xml version="1.0" encoding="iso-8859-1"?>
<!-- Generator: Adobe Illustrator 19.0.0, SVG Export Plug-In . SVG Version: 6.00 Build 0)  -->
<svg version="1.1" xmlns="http://www.w3.org/2000/svg" xmlns:xlink="http://www.w3.org/1999/xlink" x="0px" y="0px"
	 viewBox="0 0 512 512" style="enable-background:new 0 0 512 512;" xml:space="preserve">
<g id="_x33_0_x5F_tresh">
	<g id="XMLID_158_">
		<g id="XMLID_149_">
			<g id="XMLID_1720_">
				<g id="XMLID_824_">
					<g id="XMLID_826_">
						<path id="XMLID_162_" style="fill:#C2E1F5;" d="M421,436v12.92c0,26-21.08,47.08-47.08,47.08H138.08
							c-26,0-47.08-21.08-47.08-47.08V436H421z"/>
					</g>
					<g id="XMLID_825_">
						<path id="XMLID_161_" style="fill:#C2E1F5;" d="M331,211v137c0,15.46-12.54,28-28,28h-94c-15.46,0-28-12.54-28-28V211H331z"/>
					</g>
				</g>
				<g id="XMLID_286_">
					<g id="XMLID_823_">
						<path id="XMLID_2011_" style="fill: #00008B;" d="M373.92,511H138.08C103.849,511,76,483.151,76,448.92V63.08
							C76,28.849,103.849,1,138.08,1h235.84C408.151,1,436,28.849,436,63.08v385.84C436,483.151,408.151,511,373.92,511z M138.08,31
							C120.391,31,106,45.391,106,63.08v385.84c0,17.69,14.391,32.08,32.08,32.08h235.84c17.69,0,32.08-14.391,32.08-32.08V63.08
							C406,45.391,391.609,31,373.92,31H138.08z"/>
					</g>
					<g id="XMLID_822_">
						<rect id="XMLID_2010_" x="181" y="61" style="fill: #00008B;" width="89.25" height="30"/>
					</g>
					<g id="XMLID_821_">
						<rect id="XMLID_2009_" x="300.25" y="61" style="fill: #00008B;" width="30.75" height="30"/>
					</g>
					<g id="XMLID_816_">
						<rect id="XMLID_2008_" x="91" y="421" style="fill: #00008B;" width="330" height="30"/>
					</g>
					<g id="XMLID_815_">
						<path id="XMLID_2007_" style="fill: #00008B;" d="M303,391h-94c-23.71,0-43-19.29-43-43V211h30v137c0,7.168,5.832,13,13,13h94
							c7.168,0,13-5.832,13-13V211h30v137C346,371.71,326.71,391,303,391z"/>
					</g>
					<g id="XMLID_814_">
						<rect id="XMLID_2006_" x="211" y="256" style="fill: #00008B;" width="30" height="75"/>
					</g>
					<g id="XMLID_812_">
						<rect id="XMLID_2005_" x="271" y="256" style="fill: #00008B;" width="30" height="75"/>
					</g>
					<g id="XMLID_797_">
						<path id="XMLID_2004_" style="fill: #00008B;" d="M346,211h-30v-6.5c0-21.229-17.272-38.5-38.5-38.5h-43
							c-21.229,0-38.5,17.271-38.5,38.5v6.5h-30v-6.5c0-37.771,30.729-68.5,68.5-68.5h43c37.772,0,68.5,30.729,68.5,68.5V211z"/>
					</g>
					<g id="XMLID_796_">
						<rect id="XMLID_2003_" x="136" y="196" style="fill: #00008B;" width="240" height="30"/>
					</g>
					<g id="XMLID_288_">
						<rect id="XMLID_2002_" x="241" y="121" style="fill: #00008B;" width="30" height="30"/>
					</g>
				</g>
			</g>
		</g>
	</g>
</g>
<g id="Layer_1">
</g>
</svg>
